<svg width="42" height="42" viewBox="0 0 42 42" fill="none" xmlns="http://www.w3.org/2000/svg">
<path d="M24.0424 22.3288L29.2726 19.7463C30.6497 19.001 32.4364 19.2321 33.6022 20.3972L33.6023 20.3972C35.4088 22.2044 34.885 25.245 32.5797 26.3414L24.0424 22.3288ZM24.0424 22.3288C24.043 22.3022 24.0432 22.2757 24.0432 22.2491C24.0432 20.0989 22.3114 18.3166 20.1107 18.3166H15.0999C12.6217 18.3166 10.6054 20.3309 10.6054 22.8073V28.1927C10.6054 30.6711 12.6216 32.687 15.0999 32.687V32.6875L15.1127 32.6864C15.2219 32.6771 15.392 32.6803 15.6152 32.6844C16.7166 32.7048 19.1113 32.7492 21.8691 31.437C21.8691 31.437 21.8691 31.437 21.8691 31.437L32.5797 26.3414L24.0424 22.3288ZM31.8969 24.9061L31.8969 24.9061L21.1863 30.0017L21.1863 30.0017C18.7749 31.1495 16.7147 31.1135 15.6473 31.0948C15.4125 31.0907 15.2258 31.0874 15.0939 31.0978C13.4948 31.0945 12.1945 29.7925 12.1945 28.1926V22.8073C12.1945 21.2077 13.4979 19.9057 15.0999 19.9057H20.1107C21.4302 19.9057 22.4541 20.9753 22.4541 22.2491C22.4541 22.6573 22.3474 23.061 22.1452 23.4168C21.728 24.144 20.9483 24.5958 20.1107 24.5958H15.6722C15.2333 24.5958 14.8777 24.9515 14.8777 25.3904C14.8777 25.8292 15.2333 26.1849 15.6722 26.1849H20.1107C21.4319 26.1849 22.666 25.5158 23.3908 24.4225L30 21.1589L30 21.159L30.0049 21.1563C30.8294 20.7102 31.8357 20.8784 32.4787 21.5209C33.5069 22.5497 33.211 24.2814 31.8969 24.9061Z" fill="#0037D7" stroke="#0037D7" stroke-width="0.3"/>
<path d="M8.10793 19.4923C7.69667 19.4923 7.36338 19.8256 7.36338 20.2368V30.7629C7.36338 31.1741 7.69667 31.5074 8.10793 31.5074C8.5192 31.5074 8.85248 31.1741 8.85248 30.7629V20.2369C8.85248 19.8256 8.51914 19.4923 8.10793 19.4923Z" fill="#0037D7" stroke="#0037D7" stroke-width="0.2"/>
<path d="M27.8497 16.1631C28.1038 16.4126 28.5119 16.4089 28.7615 16.1554C29.9872 14.9083 30.6085 13.6287 30.6085 12.3522C30.6085 10.7576 29.3111 9.46045 27.7165 9.46045C26.9876 9.46045 26.2942 9.73791 25.7688 10.216C25.243 9.73791 24.5496 9.46045 23.8207 9.46045C22.2261 9.46045 20.9287 10.7576 20.9287 12.3522C20.9287 15.6994 25.2758 18.1014 25.4608 18.2019C25.775 18.3723 26.1656 18.255 26.335 17.9435C26.5049 17.6308 26.3894 17.2393 26.0766 17.0694C25.0033 16.4857 22.2178 14.5009 22.2178 12.3522C22.2178 11.4685 22.9369 10.7496 23.8207 10.7496C24.3925 10.7496 24.9247 11.0575 25.21 11.5535C25.3251 11.7535 25.5381 11.8766 25.7687 11.8766C25.9993 11.8766 26.2126 11.7532 26.3274 11.5533C26.6124 11.0575 27.1447 10.7496 27.7165 10.7496C28.6003 10.7496 29.3193 11.4684 29.3193 12.3522C29.3193 13.2787 28.8223 14.2542 27.8418 15.2515C27.5924 15.5055 27.5959 15.9136 27.8497 16.1631Z" fill="#0783FF"/>
</svg>
